<?xml version="1.0" encoding="UTF-8"?>
<svg xmlns="http://www.w3.org/2000/svg" version="1.1" viewBox="0 0 1400 500">
  <defs>
    <style>
      .cls-1 {
        fill: #fff;
      }
    </style>
  </defs>
  <!-- Generator: Adobe Illustrator 28.6.0, SVG Export Plug-In . SVG Version: 1.2.0 Build 709)  -->
  <g>
    <g id="Layer_1">
      <g>
        <g>
          <g>
            <path class="cls-1" d="M109.8,350.5v-200.7c0-1.4.4-2.7,1.1-3.7l-75.8,27.6c-2.6,1-4.4,3.5-4.4,6.3v140.4c0,2.8,1.8,5.3,4.4,6.3l75.8,27.6c-.7-1.1-1.1-2.4-1.1-3.7Z"/>
            <path class="cls-1" d="M202.4,112.7l-83.5,30.4h82.9c3.7,0,6.7,3,6.7,6.7v92.9h88.9v-123.3c0-4.9-4-8.9-8.9-8.9h-73.5c-4.3,0-8.6.8-12.7,2.2Z"/>
          </g>
          <path class="cls-1" d="M223.8,257.5h-58.8l39.1,14.2c2.6,1,4.4,3.5,4.4,6.3v72.4c0,3.7-3,6.7-6.7,6.7h-82.9l83.5,30.4c4.1,1.5,8.4,2.2,12.7,2.2h73.5c4.9,0,8.9-4,8.9-8.9v-112.2c0-6.1-5-11.1-11.1-11.1h-62.6Z"/>
        </g>
        <g>
          <path class="cls-1" d="M440.3,173.1h78.3c46.3,0,67.5,30.3,67.5,75.1s-18.8,79.4-66.2,79.4h-79.6v-154.4ZM518.8,307.7c37.6,0,44.3-31.6,44.3-59.1s-8.9-55.6-48.7-55.6h-51.3v114.6h55.6Z"/>
          <path class="cls-1" d="M686,169.2c62.1,0,85.9,41.5,85.9,81.1s-23.8,81.1-85.9,81.1-85.9-41.5-85.9-81.1,23.8-81.1,85.9-81.1ZM686,189.1c-35.3,0-62.9,20.3-62.9,61.2s27.7,61.2,62.9,61.2,62.9-20.3,62.9-61.2-27.7-61.2-62.9-61.2Z"/>
          <path class="cls-1" d="M870.4,169.2c62.1,0,85.9,41.5,85.9,81.1s-23.8,81.1-85.9,81.1-85.9-41.5-85.9-81.1,23.8-81.1,85.9-81.1ZM870.4,189.1c-35.3,0-62.9,20.3-62.9,61.2s27.7,61.2,62.9,61.2,62.9-20.3,62.9-61.2-27.7-61.2-62.9-61.2Z"/>
          <path class="cls-1" d="M974.8,173.1h95.6c30.9,0,42.2,21.4,42.2,41.1s-9.1,32.7-26,38.1v.4c13.6,1.9,21.6,14.7,22.5,32.9,1.3,28.8,2.2,35.9,7.4,42h-24.2c-3.7-4.3-3.7-10.8-4.8-29.4-1.5-27.7-10.8-36.1-29.8-36.1h-59.9v65.5h-22.9v-154.4ZM1061.7,242.1c22.5,0,27.9-13.6,27.9-24.4s-8.9-24.7-27.3-24.7h-64.7v49.1h64Z"/>
          <path class="cls-1" d="M1298.3,244.3h70.9v83.3h-16.4l-3.9-22.1c-10.2,11.9-26.6,26-59.3,26-61.9,0-81.5-44.6-81.5-78.5,0-59.7,40.9-83.7,80.9-83.7s67.9,10,77.7,52.6h-24.2c-7.1-21.4-23.1-32.7-52.3-32.7s-59.1,29-59.1,61.9,27.9,60.6,60.1,60.6,55.4-19.9,57.8-47.4h-50.6v-19.9Z"/>
        </g>
      </g>
    </g>
  </g>
</svg>