<?xml version="1.0" encoding="UTF-8"?>
<svg xmlns="http://www.w3.org/2000/svg" version="1.1" viewBox="0 0 120 50" width="120" height="50">
  <defs>
    <style>
      .cls-1 {
        fill: #f15f22;
      }
    </style>
  </defs>
  <!-- Generator: Adobe Illustrator 28.6.0, SVG Export Plug-In . SVG Version: 1.2.0 Build 709)  -->
  <g>
    <g id="Layer_1">
      <g>
        <path class="cls-1" d="M10.1,11.6h13.8c5.9,0,8.9,2.7,8.9,7.7s-3.1,8.3-8.7,8.3h-10.1v10.7h-4V11.6ZM23.6,24.2c3.9,0,5.2-2.1,5.2-4.8s-1.5-4.3-4.5-4.3h-10.2v9.1h9.5Z"/>
        <path class="cls-1" d="M36.3,11.6h4v23.3h16.2v3.4h-20.2V11.6Z"/>
        <path class="cls-1" d="M78.8,30.6h-13.1l-3.4,7.8h-4.3l12.1-26.7h4.5l12.1,26.7h-4.5l-3.4-7.8ZM72.2,15.3l-5,11.8h10.1l-5.1-11.8Z"/>
        <path class="cls-1" d="M105.1,11.6h4.8l-11.8,15.5v11.2h-4v-11l-11.7-15.7h5l8.7,12.2,8.9-12.2Z"/>
      </g>
    </g>
  </g>
</svg>