<svg width="30" height="32" viewBox="0 0 30 32" fill="none" xmlns="http://www.w3.org/2000/svg">
<g id="Group">
<g id="Group_2">
<path id="Vector" d="M8.88865 27.3402V4.66067C8.88865 4.50472 8.93587 4.35893 9.01683 4.23914L0.493626 7.35717C0.1979 7.46566 0 7.7482 0 8.06576V23.9351C0 24.2515 0.196776 24.5352 0.493626 24.6437L9.01796 27.7617C8.937 27.6408 8.88977 27.4961 8.88977 27.3402H8.88865Z" fill="white"/>
<path id="Vector_2" d="M19.3104 0.473608L9.9248 3.90695H19.2509C19.6646 3.90695 20.0009 4.24486 20.0009 4.66075V15.1631H30.0004V1.22628C30.0004 0.671381 29.5529 0.221588 29.0008 0.221588H20.7351C20.2494 0.221588 19.767 0.307478 19.3104 0.473608Z" fill="white"/>
</g>
<path id="Vector_3" d="M21.7167 16.838H15.1073L19.5072 18.4473C19.803 18.5558 20.0009 18.8383 20.0009 19.1559V27.3392C20.0009 27.7551 19.6646 28.093 19.2509 28.093H9.9248L19.3104 31.5263C19.767 31.6936 20.2494 31.7784 20.7351 31.7784H29.0008C29.5529 31.7784 30.0004 31.3286 30.0004 30.7737V18.0936C30.0004 17.3997 29.4405 16.8369 28.7501 16.8369H21.7167V16.838Z" fill="white"/>
</g>
</svg>
