<?xml version="1.0" encoding="UTF-8"?>
<svg xmlns="http://www.w3.org/2000/svg" version="1.1" width="40" height="40" viewBox="0 0 200 200">
  <defs>
    <style>
      .cls-1 {
        fill: #fff;
      }
    </style>
  </defs>
  <!-- Generator: Adobe Illustrator 28.6.0, SVG Export Plug-In . SVG Version: 1.2.0 Build 709)  -->
  <g>
    <g id="Layer_1">
      <path class="cls-1" d="M167.7,182.6l-24.9-24.9c-2.9,1.8-5.9,3.4-9,4.8-3.2,1.3-6.4,2.5-9.8,3.4v-12.8c1.8-.6,3.5-1.3,5.1-1.9,1.7-.7,3.2-1.4,4.7-2.4l-29.6-29.6v35.7l-35.3-35.3h-30.6v-41.2h25.1L23.6,38.5l8.7-8.7,144,144.1-8.7,8.7h0ZM163.7,138l-8.9-8.9c2.9-4.5,5.1-9.3,6.6-14.4,1.5-5.1,2.3-10.4,2.3-16,0-12.5-3.6-23.7-10.9-33.7-7.3-10-16.8-16.8-28.7-20.6v-12.8c15.4,4.1,27.9,12.3,37.5,24.7,9.6,12.4,14.4,26.5,14.4,42.3s-1.1,14.2-3.2,20.8-5.2,12.8-9.1,18.4h0ZM138.4,112.8l-14.4-14.4v-29.9c5.6,3,9.9,7.3,12.9,12.8,3,5.5,4.6,11.4,4.6,17.8s-.2,4.8-.8,7.1-1.2,4.5-2.3,6.7h0ZM104.3,78.7l-17.8-17.9,17.8-17.8v35.7h0ZM92,125v-18.1l-16.1-16.1h-25.1v16.5h23.5l17.7,17.7h0Z"/>
    </g>
  </g>
</svg>