<?xml version="1.0" encoding="UTF-8"?>
<svg xmlns="http://www.w3.org/2000/svg" version="1.1" width="40" height="40" viewBox="0 0 200 200">
  <defs>
    <style>
      .cls-1 {
        fill: #fff;
      }
    </style>
  </defs>
  <!-- Generator: Adobe Illustrator 28.6.0, SVG Export Plug-In . SVG Version: 1.2.0 Build 709)  -->
  <g>
    <g id="Layer_1">
      <path class="cls-1" d="M124,165.7v-12.8c11.9-3.8,21.5-10.6,28.7-20.6,7.3-10,10.9-21.2,10.9-33.7s-3.6-23.7-10.9-33.7c-7.3-10-16.8-16.8-28.7-20.6v-12.8c15.3,4.1,27.9,12.3,37.5,24.7,9.7,12.4,14.5,26.5,14.5,42.3s-4.8,30-14.5,42.3-22.2,20.6-37.5,24.7h0ZM38.4,119.5v-41.2h30.6l35.3-35.3v111.9l-35.3-35.3h-30.6ZM124,129v-60.7c5.6,3,9.8,7.3,12.9,12.8,3,5.5,4.6,11.4,4.6,17.8s-1.5,12.1-4.6,17.5c-3.1,5.4-7.3,9.6-12.8,12.6h0ZM92,72.9l-17.7,17.7h-23.5v16.5h23.5l17.7,17.7v-51.9Z"/>
    </g>
  </g>
</svg>